<svg width="24" height="24" viewBox="0 0 24 24" fill="none" xmlns="http://www.w3.org/2000/svg">
<mask id="path-1-inside-1_110420_6368" fill="white">
<path fill-rule="evenodd" clip-rule="evenodd" d="M12 4C7.58172 4 4 7.58172 4 12C4 16.4183 7.58172 20 12 20C16.4183 20 20 16.4183 20 12C20 7.58172 16.4183 4 12 4ZM2 12C2 6.47715 6.47715 2 12 2C17.5228 2 22 6.47715 22 12C22 17.5228 17.5228 22 12 22C6.47715 22 2 17.5228 2 12ZM12 5C12.5523 5 13 5.44772 13 6V6.9996C13.5323 6.98765 14.0584 7.1176 14.5242 7.37637C14.9998 7.64059 15.3946 8.02918 15.6664 8.50054C15.9422 8.97901 15.7779 9.5905 15.2994 9.86633C14.821 10.1422 14.2095 9.97788 13.9336 9.49941C13.8431 9.34229 13.7115 9.21276 13.5529 9.12468C13.3944 9.03661 13.2149 8.9933 13.0336 8.99941C13.0224 8.99978 13.0112 8.99997 13 8.99997H12.0074C12.0049 8.99999 12.0025 9 12 9C11.9975 9 11.9951 8.99999 11.9926 8.99997H11C10.7348 8.99997 10.4804 9.10533 10.2929 9.29287C10.1054 9.4804 10 9.73476 10 9.99997C10 10.2652 10.1054 10.5195 10.2929 10.7071C10.4804 10.8946 10.7348 11 11 11H13C13.7957 11 14.5587 11.316 15.1213 11.8787C15.6839 12.4413 16 13.2043 16 14C16 14.7956 15.6839 15.5587 15.1213 16.1213C14.5587 16.6839 13.7957 17 13 17V18C13 18.5523 12.5523 19 12 19C11.4477 19 11 18.5523 11 18V17.0004C10.4677 17.0123 9.94157 16.8824 9.47578 16.6236C9.00017 16.3594 8.60538 15.9708 8.33365 15.4994C8.05782 15.0209 8.22209 14.4095 8.70057 14.1336C9.17904 13.8578 9.79052 14.0221 10.0664 14.5005C10.1569 14.6577 10.2885 14.7872 10.4471 14.8753C10.6056 14.9633 10.7851 15.0066 10.9664 15.0005C10.9776 15.0002 10.9888 15 11 15H13C13.2652 15 13.5196 14.8946 13.7071 14.7071C13.8946 14.5195 14 14.2652 14 14C14 13.7348 13.8946 13.4804 13.7071 13.2929C13.5196 13.1053 13.2652 13 13 13H11C10.2043 13 9.44129 12.6839 8.87868 12.1213C8.31607 11.5587 8 10.7956 8 9.99997C8 9.20432 8.31607 8.44126 8.87868 7.87865C9.44129 7.31604 10.2043 6.99997 11 6.99997V6C11 5.44772 11.4477 5 12 5Z"/>
</mask>
<path d="M13 6.9996H11C11 7.53781 11.2169 8.05331 11.6017 8.42959C11.9866 8.80587 12.5068 9.01117 13.0449 8.99909L13 6.9996ZM14.5242 7.37637L15.4955 5.62806L15.4955 5.62805L14.5242 7.37637ZM15.6664 8.50054L13.9336 9.49941L13.9336 9.49941L15.6664 8.50054ZM15.2994 9.86633L14.3006 8.13362L14.3006 8.13362L15.2994 9.86633ZM13.9336 9.49941L12.2009 10.4983L12.2009 10.4983L13.9336 9.49941ZM13.5529 9.12468L12.5816 10.873L12.5817 10.873L13.5529 9.12468ZM13.0336 8.99941L12.9664 7.00054L12.9663 7.00054L13.0336 8.99941ZM12.0074 8.99997V6.99997C12.0026 6.99997 11.9978 6.99999 11.993 7.00002L12.0074 8.99997ZM11.9926 8.99997L12.007 7.00002C12.0022 6.99999 11.9974 6.99997 11.9926 6.99997V8.99997ZM10.2929 9.29287L8.87868 7.87865L8.87868 7.87865L10.2929 9.29287ZM10.2929 10.7071L8.87868 12.1213L8.87868 12.1213L10.2929 10.7071ZM13 17V15C11.8954 15 11 15.8954 11 17H13ZM11 17.0004H13C13 16.4621 12.7831 15.9466 12.3983 15.5704C12.0134 15.1941 11.4932 14.9888 10.9551 15.0009L11 17.0004ZM9.47578 16.6236L10.4471 14.8753L10.4471 14.8753L9.47578 16.6236ZM8.33365 15.4994L10.0664 14.5005L10.0664 14.5005L8.33365 15.4994ZM8.70057 14.1336L9.69943 15.8663L9.69943 15.8663L8.70057 14.1336ZM10.0664 14.5005L8.33365 15.4994L8.33365 15.4994L10.0664 14.5005ZM10.4471 14.8753L9.47577 16.6236L9.47578 16.6236L10.4471 14.8753ZM10.9664 15.0005L11.0336 16.9994L11.0337 16.9994L10.9664 15.0005ZM13.7071 14.7071L15.1213 16.1213L15.1213 16.1213L13.7071 14.7071ZM13.7071 13.2929L15.1213 11.8787L15.1213 11.8786L13.7071 13.2929ZM8.87868 12.1213L10.2929 10.7071H10.2929L8.87868 12.1213ZM8.87868 7.87865L10.2929 9.29287L10.2929 9.29287L8.87868 7.87865ZM11 6.99997V8.99997C12.1046 8.99997 13 8.10454 13 6.99997H11ZM6 12C6 8.68629 8.68629 6 12 6V2C6.47715 2 2 6.47715 2 12H6ZM12 18C8.68629 18 6 15.3137 6 12H2C2 17.5228 6.47715 22 12 22V18ZM18 12C18 15.3137 15.3137 18 12 18V22C17.5228 22 22 17.5228 22 12H18ZM12 6C15.3137 6 18 8.68629 18 12H22C22 6.47715 17.5228 2 12 2V6ZM12 0C5.37258 0 0 5.37258 0 12H4C4 7.58172 7.58172 4 12 4V0ZM24 12C24 5.37258 18.6274 0 12 0V4C16.4183 4 20 7.58172 20 12H24ZM12 24C18.6274 24 24 18.6274 24 12H20C20 16.4183 16.4183 20 12 20V24ZM0 12C0 18.6274 5.37258 24 12 24V20C7.58172 20 4 16.4183 4 12H0ZM15 6C15 4.34315 13.6569 3 12 3V7C11.4477 7 11 6.55228 11 6H15ZM15 6.9996V6H11V6.9996H15ZM15.4955 5.62805C14.7192 5.19677 13.8423 4.98019 12.9551 5.0001L13.0449 8.99909C13.2223 8.99511 13.3977 9.03843 13.5529 9.12468L15.4955 5.62805ZM17.3991 7.50167C16.9462 6.71608 16.2882 6.06843 15.4955 5.62806L13.5529 9.12468C13.7115 9.21276 13.8431 9.34229 13.9336 9.49941L17.3991 7.50167ZM16.2983 11.599C17.7337 10.7715 18.2265 8.93709 17.3991 7.50167L13.9336 9.49941C13.6578 9.02094 13.8221 8.40945 14.3006 8.13362L16.2983 11.599ZM12.2009 10.4983C13.0284 11.9337 14.8629 12.4265 16.2983 11.599L14.3006 8.13362C14.779 7.85779 15.3905 8.02207 15.6664 8.50054L12.2009 10.4983ZM12.5817 10.873C12.4231 10.7849 12.2915 10.6554 12.2009 10.4983L15.6664 8.50054C15.3946 8.02918 14.9998 7.64059 14.5242 7.37637L12.5817 10.873ZM13.1009 10.9983C12.9197 11.0044 12.7402 10.9611 12.5816 10.873L14.5242 7.37637C14.0486 7.11214 13.5101 6.98223 12.9664 7.00054L13.1009 10.9983ZM13 11C13.0337 11 13.0673 10.9994 13.101 10.9983L12.9663 7.00054C12.9775 7.00016 12.9888 6.99997 13 6.99997V11ZM12.0074 11H13V6.99997H12.0074V11ZM12 11C12.0074 11 12.0146 11 12.0217 10.9999L11.993 7.00002C11.9952 7.00001 11.9976 7 12 7V11ZM11.9783 10.9999C11.9854 11 11.9926 11 12 11V7C12.0024 7 12.0048 7.00001 12.007 7.00002L11.9783 10.9999ZM11 11H11.9926V6.99997H11V11ZM11.7071 10.7071C11.5196 10.8946 11.2652 11 11 11V6.99997C10.2043 6.99997 9.44129 7.31604 8.87868 7.87865L11.7071 10.7071ZM12 9.99997C12 10.2652 11.8946 10.5195 11.7071 10.7071L8.87868 7.87865C8.31607 8.44126 8 9.20432 8 9.99997H12ZM11.7071 9.29287C11.8946 9.4804 12 9.73475 12 9.99997H8C8 10.7956 8.31607 11.5587 8.87868 12.1213L11.7071 9.29287ZM11 8.99997C11.2652 8.99997 11.5196 9.10533 11.7071 9.29286L8.87868 12.1213C9.44129 12.6839 10.2043 13 11 13V8.99997ZM13 8.99997H11V13H13V8.99997ZM16.5355 10.4644C15.5979 9.52676 14.3261 8.99997 13 8.99997V13C13.2652 13 13.5196 13.1053 13.7071 13.2929L16.5355 10.4644ZM18 14C18 12.6739 17.4732 11.4021 16.5355 10.4644L13.7071 13.2929C13.8946 13.4804 14 13.7348 14 14H18ZM16.5355 17.5355C17.4732 16.5978 18 15.3261 18 14H14C14 14.2652 13.8946 14.5195 13.7071 14.7071L16.5355 17.5355ZM13 19C14.3261 19 15.5979 18.4732 16.5355 17.5355L13.7071 14.7071C13.5196 14.8946 13.2652 15 13 15V19ZM15 18V17H11V18H15ZM12 21C13.6569 21 15 19.6569 15 18H11C11 17.4477 11.4477 17 12 17V21ZM9 18C9 19.6569 10.3431 21 12 21V17C12.5523 17 13 17.4477 13 18H9ZM9 17.0004V18H13V17.0004H9ZM8.50449 18.3719C9.28081 18.8032 10.1577 19.0198 11.0449 18.9998L10.9551 15.0009C10.7777 15.0048 10.6023 14.9615 10.4471 14.8753L8.50449 18.3719ZM6.60094 16.4983C7.05382 17.2839 7.71182 17.9315 8.50449 18.3719L10.4471 14.8753C10.2885 14.7872 10.1569 14.6577 10.0664 14.5005L6.60094 16.4983ZM7.7017 12.4009C6.26628 13.2284 5.77345 15.0629 6.60094 16.4983L10.0664 14.5005C10.3422 14.979 10.1779 15.5905 9.69943 15.8663L7.7017 12.4009ZM11.7991 13.5017C10.9716 12.0663 9.13712 11.5734 7.7017 12.4009L9.69943 15.8663C9.22096 16.1422 8.60948 15.9779 8.33365 15.4994L11.7991 13.5017ZM11.4184 13.127C11.5769 13.215 11.7085 13.3445 11.7991 13.5017L8.33365 15.4994C8.60538 15.9708 9.00018 16.3594 9.47577 16.6236L11.4184 13.127ZM10.8991 13.0017C11.0803 12.9956 11.2598 13.0389 11.4183 13.1269L9.47578 16.6236C9.95138 16.8878 10.4899 17.0177 11.0336 16.9994L10.8991 13.0017ZM11 13C10.9663 13 10.9327 13.0005 10.899 13.0017L11.0337 16.9994C11.0225 16.9998 11.0112 17 11 17V13ZM13 13H11V17H13V13ZM12.2929 13.2929C12.4804 13.1053 12.7348 13 13 13V17C13.7957 17 14.5587 16.6839 15.1213 16.1213L12.2929 13.2929ZM12 14C12 13.7348 12.1054 13.4804 12.2929 13.2929L15.1213 16.1213C15.6839 15.5587 16 14.7956 16 14H12ZM12.2929 14.7071C12.1054 14.5195 12 14.2652 12 14H16C16 13.2043 15.6839 12.4413 15.1213 11.8787L12.2929 14.7071ZM13 15C12.7348 15 12.4804 14.8946 12.2929 14.7071L15.1213 11.8786C14.5587 11.316 13.7957 11 13 11V15ZM11 15H13V11H11V15ZM7.46447 13.5355C8.40215 14.4732 9.67392 15 11 15V11C10.7348 11 10.4804 10.8946 10.2929 10.7071L7.46447 13.5355ZM6 9.99997C6 11.3261 6.52679 12.5978 7.46447 13.5355L10.2929 10.7071C10.1054 10.5195 10 10.2652 10 9.99997H6ZM7.46447 6.46444C6.52679 7.40212 6 8.67389 6 9.99997H10C10 9.73476 10.1054 9.4804 10.2929 9.29287L7.46447 6.46444ZM11 4.99997C9.67392 4.99997 8.40215 5.52676 7.46447 6.46444L10.2929 9.29287C10.4804 9.10533 10.7348 8.99997 11 8.99997V4.99997ZM9 6V6.99997H13V6H9ZM12 3C10.3431 3 9 4.34315 9 6H13C13 6.55228 12.5523 7 12 7V3Z" fill="#DC5326" mask="url(#path-1-inside-1_110420_6368)"/>
</svg>
