<svg width="40" height="40" viewBox="0 0 40 40" fill="none" xmlns="http://www.w3.org/2000/svg">
<path fill-rule="evenodd" clip-rule="evenodd" d="M20.0001 13.3334C19.7791 13.3334 19.5671 13.4212 19.4108 13.5775C19.2545 13.7338 19.1667 13.9457 19.1667 14.1667C19.1667 14.489 18.981 14.7824 18.6896 14.9201C17.8693 15.308 17.1701 15.9118 16.6667 16.6667C16.1669 17.4165 15.879 18.2873 15.8334 19.187V21.6667C15.8334 21.7002 15.8314 21.7337 15.8274 21.7669C15.7605 22.3194 15.5837 22.8519 15.3086 23.3334H24.6916C24.4164 22.8519 24.2397 22.3194 24.1728 21.7669C24.1688 21.7337 24.1667 21.7002 24.1667 21.6667V19.1871C24.1211 18.2873 23.8333 17.4165 23.3334 16.6667C22.8301 15.9118 22.1308 15.308 21.3105 14.9201C21.0192 14.7824 20.8334 14.489 20.8334 14.1667C20.8334 13.9457 20.7456 13.7338 20.5893 13.5775C20.4331 13.4212 20.2211 13.3334 20.0001 13.3334ZM21.6667 25.0001H18.3334C18.3334 25.4421 18.509 25.866 18.8216 26.1786C19.1341 26.4912 19.558 26.6667 20.0001 26.6667C20.4421 26.6667 20.866 26.4912 21.1786 26.1786C21.4911 25.866 21.6667 25.4421 21.6667 25.0001ZM16.6667 25.0001C16.6667 25.8841 17.0179 26.732 17.6431 27.3571C18.2682 27.9822 19.116 28.3334 20.0001 28.3334C20.8841 28.3334 21.732 27.9822 22.3571 27.3571C22.9822 26.732 23.3334 25.8841 23.3334 25.0001H26.6667C27.0452 25.0001 27.3761 24.745 27.4726 24.3791C27.569 24.0131 27.4067 23.6281 27.0774 23.4416C26.7368 23.2487 26.4462 22.9786 26.2291 22.6529C26.0206 22.3402 25.8855 21.9847 25.8334 21.6129V19.1667C25.8334 19.1537 25.8331 19.1407 25.8325 19.1277C25.7758 17.9192 25.3913 16.7489 24.7202 15.7422C24.1364 14.8667 23.3551 14.1436 22.4418 13.6298C22.34 13.1672 22.108 12.7391 21.7678 12.399C21.299 11.9301 20.6631 11.6667 20.0001 11.6667C19.337 11.6667 18.7012 11.9301 18.2323 12.399C17.8921 12.7391 17.6601 13.1672 17.5584 13.6298C16.6451 14.1436 15.8637 14.8667 15.28 15.7422C14.6089 16.7489 14.2244 17.9192 14.1677 19.1277C14.167 19.1407 14.1667 19.1537 14.1667 19.1667V21.6129C14.1147 21.9847 13.9795 22.3402 13.771 22.6529C13.5539 22.9786 13.2634 23.2487 12.9228 23.4416C12.5935 23.6281 12.4312 24.0131 12.5276 24.3791C12.624 24.745 12.9549 25.0001 13.3334 25.0001H16.6667Z" fill="#667085"/>
</svg>
