<svg width="24" height="24" viewBox="0 0 24 24" fill="none" xmlns="http://www.w3.org/2000/svg">
<path d="M12 19C9.60436 19 7.44767 18.1632 5.52987 16.4886C7.44887 18.1638 9.60651 19 12 19ZM2.29858 12.5081C2.19815 12.3419 2.09862 12.1726 2 12C2.09862 11.8274 2.19815 11.658 2.29858 11.4919C2.11362 11.8053 2.11362 12.1947 2.29858 12.5081ZM11.9996 5C9.60624 5.0001 7.44875 5.8363 5.52987 7.51135C7.44754 5.83693 9.6041 5.0001 11.9996 5ZM22 12C21.9014 12.1726 21.8019 12.3419 21.7014 12.5081C21.8864 12.1947 21.8864 11.8053 21.7014 11.4919C21.8019 11.658 21.9014 11.8274 22 12ZM12 5C14.3918 5 16.5454 5.83415 18.4609 7.50332C16.5442 5.83353 14.3897 5 12 5Z" stroke="#475467" stroke-width="2" stroke-linecap="round" stroke-linejoin="round"/>
</svg>
