<svg width="20" height="20" viewBox="0 0 20 20" fill="none" xmlns="http://www.w3.org/2000/svg">
<path fill-rule="evenodd" clip-rule="evenodd" d="M8.33366 3.33341C5.57224 3.33341 3.33366 5.57199 3.33366 8.33342C3.33366 11.0948 5.57224 13.3334 8.33366 13.3334C11.0951 13.3334 13.3337 11.0948 13.3337 8.33342C13.3337 5.57199 11.0951 3.33341 8.33366 3.33341ZM1.66699 8.33342C1.66699 4.65152 4.65176 1.66675 8.33366 1.66675C12.0156 1.66675 15.0003 4.65152 15.0003 8.33342C15.0003 9.87401 14.4778 11.2925 13.6002 12.4215L18.0896 16.9108C18.415 17.2363 18.415 17.7639 18.0896 18.0893C17.7641 18.4148 17.2365 18.4148 16.9111 18.0893L12.4217 13.6C11.2928 14.4775 9.87425 15.0001 8.33366 15.0001C4.65176 15.0001 1.66699 12.0153 1.66699 8.33342Z" fill="#8A8A8A"/>
</svg>
