<svg width="25" height="24" viewBox="0 0 25 24" fill="none" xmlns="http://www.w3.org/2000/svg">
<path d="M22.25 0.562495H2.75C2.30756 0.557992 1.8814 0.729191 1.56504 1.03853C1.24867 1.34786 1.06794 1.77006 1.0625 2.2125V21.7912C1.06892 22.233 1.25009 22.6543 1.56634 22.9628C1.8826 23.2713 2.3082 23.442 2.75 23.4375H22.25C22.6925 23.441 23.1183 23.2692 23.4345 22.9597C23.7507 22.6502 23.9316 22.2281 23.9375 21.7856V2.20687C23.9296 1.76574 23.7479 1.34555 23.4319 1.03763C23.1159 0.729716 22.6912 0.558966 22.25 0.562495Z" fill="#0076B2"/>
<path d="M4.44871 9.13687H7.84434V20.0625H4.44871V9.13687ZM6.14746 3.69937C6.53692 3.69937 6.91764 3.81488 7.24144 4.0313C7.56523 4.24771 7.81757 4.5553 7.96653 4.91515C8.11548 5.275 8.15436 5.67094 8.07824 6.0529C8.00213 6.43485 7.81444 6.78564 7.53891 7.0609C7.26339 7.33616 6.91242 7.52352 6.5304 7.59927C6.14837 7.67502 5.75246 7.63577 5.39275 7.48647C5.03304 7.33717 4.7257 7.08454 4.50959 6.76054C4.29349 6.43653 4.17834 6.05571 4.17871 5.66625C4.17921 5.14443 4.38685 4.64415 4.75601 4.27534C5.12517 3.90653 5.62564 3.69937 6.14746 3.69937ZM9.97434 9.13687H13.2293V10.6369H13.2743C13.7281 9.77812 14.8343 8.8725 16.4862 8.8725C19.925 8.865 20.5625 11.1281 20.5625 14.0625V20.0625H17.1668V14.7469C17.1668 13.4812 17.1443 11.8519 15.4025 11.8519C13.6606 11.8519 13.3643 13.2319 13.3643 14.6644V20.0625H9.97434V9.13687Z" fill="white"/>
</svg>
